<?xml version="1.0" encoding="UTF-8"?>
<svg xmlns="http://www.w3.org/2000/svg" xmlns:xlink="http://www.w3.org/1999/xlink" width="438.09pt" height="380.8pt" viewBox="0 0 438.09 380.8" version="1.1">
<defs>
<clipPath id="clip1">
  <path d="M 0 0 L 438.089844 0 L 438.089844 330 L 0 330 Z M 0 0 "/>
</clipPath>
<clipPath id="clip2">
  <path d="M 0 340 L 29 340 L 29 380.800781 L 0 380.800781 Z M 0 340 "/>
</clipPath>
<clipPath id="clip3">
  <path d="M 32 340 L 38 340 L 38 380.800781 L 32 380.800781 Z M 32 340 "/>
</clipPath>
<clipPath id="clip4">
  <path d="M 41 353 L 68 353 L 68 380.800781 L 41 380.800781 Z M 41 353 "/>
</clipPath>
<clipPath id="clip5">
  <path d="M 70 354 L 98 354 L 98 380.800781 L 70 380.800781 Z M 70 354 "/>
</clipPath>
<clipPath id="clip6">
  <path d="M 99 347 L 121 347 L 121 380.800781 L 99 380.800781 Z M 99 347 "/>
</clipPath>
<clipPath id="clip7">
  <path d="M 123 353 L 140 353 L 140 380.800781 L 123 380.800781 Z M 123 353 "/>
</clipPath>
<clipPath id="clip8">
  <path d="M 142 354 L 167 354 L 167 380.800781 L 142 380.800781 Z M 142 354 "/>
</clipPath>
<clipPath id="clip9">
  <path d="M 169 354 L 194 354 L 194 380.800781 L 169 380.800781 Z M 169 354 "/>
</clipPath>
<clipPath id="clip10">
  <path d="M 197 354 L 203 354 L 203 380.800781 L 197 380.800781 Z M 197 354 "/>
</clipPath>
<clipPath id="clip11">
  <path d="M 206 354 L 233 354 L 233 380.800781 L 206 380.800781 Z M 206 354 "/>
</clipPath>
<clipPath id="clip12">
  <path d="M 235 354 L 260 354 L 260 380.800781 L 235 380.800781 Z M 235 354 "/>
</clipPath>
<clipPath id="clip13">
  <path d="M 288 340 L 322 340 L 322 380.800781 L 288 380.800781 Z M 288 340 "/>
</clipPath>
<clipPath id="clip14">
  <path d="M 324 347 L 345 347 L 345 380.800781 L 324 380.800781 Z M 324 347 "/>
</clipPath>
<clipPath id="clip15">
  <path d="M 347 354 L 373 354 L 373 380.800781 L 347 380.800781 Z M 347 354 "/>
</clipPath>
<clipPath id="clip16">
  <path d="M 374 341 L 402 341 L 402 380.800781 L 374 380.800781 Z M 374 341 "/>
</clipPath>
<clipPath id="clip17">
  <path d="M 404 354 L 411 354 L 411 380.800781 L 404 380.800781 Z M 404 354 "/>
</clipPath>
<clipPath id="clip18">
  <path d="M 413 354 L 438.089844 354 L 438.089844 380.800781 L 413 380.800781 Z M 413 354 "/>
</clipPath>
</defs>
<g id="surface1">
<g clip-path="url(#clip1)" clip-rule="nonzero">
<path style=" stroke:none;fill-rule:nonzero;fill:rgb(13.699341%,9.399414%,8.198547%);fill-opacity:1;" d="M 30.636719 228.277344 L 30.636719 21.785156 C 30.636719 14.886719 36.234375 9.292969 43.132813 9.292969 L 394.957031 9.292969 C 401.859375 9.292969 407.453125 14.886719 407.453125 21.785156 L 407.453125 228.277344 C 407.453125 235.179688 401.859375 240.769531 394.957031 240.769531 L 43.132813 240.769531 C 36.234375 240.769531 30.636719 235.179688 30.636719 228.277344 M 219.046875 263.570313 C 213.960938 263.570313 209.839844 259.449219 209.839844 254.363281 C 209.839844 249.277344 213.960938 245.15625 219.046875 245.15625 C 224.128906 245.15625 228.253906 249.277344 228.253906 254.363281 C 228.253906 259.449219 224.128906 263.570313 219.046875 263.570313 M 2.152344 329.769531 L 435.9375 329.769531 C 437.761719 329.769531 438.757813 327.636719 437.582031 326.238281 L 433.085938 320.890625 C 432.679688 320.40625 432.074219 320.125 431.441406 320.125 L 252.964844 320.125 L 240.316406 267.078125 L 410.082031 267.078125 C 416.984375 267.078125 422.578125 261.480469 422.578125 254.582031 L 422.578125 12.496094 C 422.578125 5.59375 416.984375 0 410.082031 0 L 28.007813 0 C 21.105469 0 15.511719 5.59375 15.511719 12.496094 L 15.511719 254.582031 C 15.511719 261.480469 21.105469 267.078125 28.007813 267.078125 L 197.773438 267.078125 L 185.125 320.125 L 6.648438 320.125 C 6.015625 320.125 5.414063 320.40625 5.003906 320.890625 L 0.507813 326.238281 C -0.667969 327.636719 0.328125 329.769531 2.152344 329.769531 "/>
</g>
<path style=" stroke:none;fill-rule:nonzero;fill:rgb(13.699341%,9.399414%,8.198547%);fill-opacity:1;" d="M 180.226563 136.441406 C 178.464844 135.789063 176.582031 135.644531 174.574219 136.011719 C 172.566406 136.382813 170.828125 137.425781 169.355469 139.144531 L 125.25 190.007813 L 81.148438 139.144531 C 79.671875 137.425781 77.933594 136.382813 75.925781 136.011719 C 73.917969 135.644531 72.035156 135.789063 70.273438 136.441406 C 68.511719 137.101563 67.019531 138.246094 65.789063 139.882813 C 64.5625 141.523438 63.949219 143.445313 63.949219 145.65625 L 63.949219 205.117188 L 78.566406 205.117188 L 78.566406 158.3125 L 117.878906 203.644531 C 118.863281 204.789063 119.988281 205.648438 121.257813 206.222656 C 122.527344 206.796875 123.839844 207.082031 125.1875 207.082031 C 126.539063 207.082031 127.871094 206.796875 129.183594 206.222656 C 130.492188 205.648438 131.640625 204.789063 132.621094 203.644531 L 171.933594 158.3125 L 171.933594 205.117188 L 186.554688 205.117188 L 186.554688 145.65625 C 186.554688 143.445313 185.9375 141.523438 184.710938 139.882813 C 183.480469 138.246094 181.988281 137.101563 180.226563 136.441406 "/>
<path style=" stroke:none;fill-rule:nonzero;fill:rgb(13.699341%,9.399414%,8.198547%);fill-opacity:1;" d="M 264.746094 187.609375 C 262.902344 189.453125 260.671875 190.375 258.050781 190.375 L 217.386719 190.375 C 214.765625 190.375 212.535156 189.453125 210.691406 187.609375 C 208.851563 185.765625 207.925781 183.535156 207.925781 180.914063 C 207.925781 178.292969 208.851563 176.0625 210.691406 174.21875 C 212.535156 172.378906 214.765625 171.457031 217.386719 171.457031 L 258.050781 171.457031 C 260.671875 171.457031 262.902344 172.378906 264.746094 174.21875 C 266.589844 176.0625 267.511719 178.292969 267.511719 180.914063 C 267.511719 183.535156 266.589844 185.765625 264.746094 187.609375 M 275.1875 163.777344 C 273.019531 161.609375 270.460938 159.886719 267.511719 158.617188 C 264.5625 157.347656 261.40625 156.714844 258.050781 156.714844 L 217.386719 156.714844 C 214.027344 156.714844 210.875 157.347656 207.925781 158.617188 C 204.980469 159.886719 202.417969 161.609375 200.25 163.777344 C 198.078125 165.945313 196.359375 168.507813 195.089844 171.457031 C 193.820313 174.402344 193.1875 177.558594 193.1875 180.914063 C 193.1875 184.273438 193.820313 187.425781 195.089844 190.375 C 196.359375 193.320313 198.078125 195.882813 200.25 198.050781 C 202.417969 200.222656 204.980469 201.941406 207.925781 203.210938 C 210.875 204.484375 214.027344 205.117188 217.386719 205.117188 L 258.050781 205.117188 C 261.40625 205.117188 264.5625 204.484375 267.511719 203.210938 C 270.460938 201.941406 273.019531 200.222656 275.1875 198.050781 C 277.355469 195.882813 279.078125 193.320313 280.347656 190.375 C 281.617188 187.425781 282.253906 184.273438 282.253906 180.914063 C 282.253906 177.558594 281.617188 174.402344 280.347656 171.457031 C 279.078125 168.507813 277.355469 165.945313 275.1875 163.777344 "/>
<path style=" stroke:none;fill-rule:nonzero;fill:rgb(13.699341%,9.399414%,8.198547%);fill-opacity:1;" d="M 359.402344 180.914063 C 359.402344 183.539063 358.480469 185.769531 356.636719 187.609375 C 354.796875 189.453125 352.5625 190.375 349.941406 190.375 L 311.980469 190.375 C 309.359375 190.375 307.128906 189.453125 305.285156 187.609375 C 303.441406 185.769531 302.519531 183.539063 302.519531 180.914063 C 302.519531 178.292969 303.441406 176.0625 305.285156 174.21875 C 307.128906 172.378906 309.359375 171.457031 311.980469 171.457031 L 350.554688 171.457031 L 350.554688 156.714844 L 311.980469 156.714844 C 308.621094 156.714844 305.46875 157.347656 302.519531 158.617188 C 299.570313 159.886719 297.011719 161.609375 294.84375 163.777344 C 292.671875 165.949219 290.953125 168.507813 289.683594 171.457031 C 288.414063 174.402344 287.78125 177.558594 287.78125 180.914063 C 287.78125 184.273438 288.414063 187.425781 289.683594 190.375 C 290.953125 193.324219 292.671875 195.882813 294.84375 198.050781 C 297.011719 200.222656 299.570313 201.941406 302.519531 203.210938 C 305.46875 204.484375 308.621094 205.117188 311.980469 205.117188 L 349.941406 205.117188 C 353.296875 205.117188 356.453125 204.484375 359.402344 203.210938 C 362.351563 201.941406 364.910156 200.222656 367.078125 198.050781 C 369.25 195.882813 370.96875 193.324219 372.238281 190.375 C 373.507813 187.425781 374.144531 184.273438 374.144531 180.914063 L 374.144531 141.847656 L 359.402344 141.847656 "/>
<path style=" stroke:none;fill-rule:nonzero;fill:rgb(13.699341%,9.399414%,8.198547%);fill-opacity:1;" d="M 344.726563 116.226563 L 356.03125 83.140625 L 388.921875 70.71875 L 326.398438 55.476563 Z M 344.726563 116.226563 "/>
<g clip-path="url(#clip2)" clip-rule="nonzero">
<path style=" stroke:none;fill-rule:nonzero;fill:rgb(13.699341%,9.399414%,8.198547%);fill-opacity:1;" d="M 2.484375 343.328125 C 0.828125 345.136719 0 347.449219 0 350.261719 L 0 370.707031 C 0 375.417969 1.621094 378.394531 4.867188 379.636719 C 6.539063 380.273438 8.125 380.59375 9.628906 380.59375 L 28.699219 380.59375 L 28.699219 374.875 L 9.628906 374.875 C 8.730469 374.875 7.996094 374.613281 7.425781 374.097656 C 6.757813 373.476563 6.417969 372.605469 6.417969 371.480469 L 6.417969 361.960938 L 28.699219 361.960938 L 28.699219 356.238281 L 6.417969 356.238281 L 6.417969 350.054688 C 6.417969 347.792969 7.84375 346.664063 10.6875 346.664063 L 28.699219 346.664063 L 28.699219 340.945313 L 8.4375 340.945313 C 5.9375 340.945313 3.953125 341.738281 2.484375 343.328125 "/>
</g>
<g clip-path="url(#clip3)" clip-rule="nonzero">
<path style=" stroke:none;fill-rule:nonzero;fill:rgb(13.699341%,9.399414%,8.198547%);fill-opacity:1;" d="M 32.402344 380.386719 L 37.914063 380.386719 L 37.914063 340.894531 L 32.402344 340.894531 Z M 32.402344 380.386719 "/>
</g>
<g clip-path="url(#clip4)" clip-rule="nonzero">
<path style=" stroke:none;fill-rule:nonzero;fill:rgb(13.699341%,9.399414%,8.198547%);fill-opacity:1;" d="M 62.472656 362.503906 C 62.472656 364.140625 61.558594 364.960938 59.730469 364.960938 L 46.972656 364.960938 L 46.972656 360.976563 C 46.972656 359.957031 47.300781 359.3125 47.957031 359.035156 C 48.179688 358.933594 48.765625 358.878906 49.714844 358.878906 L 59.859375 358.878906 C 60.773438 358.878906 61.445313 359.0625 61.878906 359.421875 C 62.273438 359.769531 62.472656 360.414063 62.472656 361.363281 Z M 60.507813 353.988281 L 48.886719 353.988281 C 46.367188 353.988281 44.488281 354.515625 43.246094 355.566406 C 42.054688 356.601563 41.460938 358.320313 41.460938 360.71875 L 41.460938 374.304688 C 41.460938 376.5625 42.375 378.359375 44.203125 379.6875 C 45.03125 380.292969 46.523438 380.59375 48.679688 380.59375 L 67.132813 380.59375 L 67.132813 375.699219 L 50.101563 375.699219 C 48.707031 375.699219 47.816406 375.511719 47.4375 375.132813 C 47.128906 374.820313 46.972656 374.183594 46.972656 373.21875 L 46.972656 369.851563 L 62.007813 369.851563 C 63.890625 369.851563 65.355469 369.25 66.40625 368.042969 C 67.460938 366.851563 67.984375 365.425781 67.984375 363.769531 L 67.984375 360.382813 C 67.984375 358.429688 67.453125 356.980469 66.382813 356.03125 C 64.863281 354.671875 62.90625 353.988281 60.507813 353.988281 "/>
</g>
<g clip-path="url(#clip5)" clip-rule="nonzero">
<path style=" stroke:none;fill-rule:nonzero;fill:rgb(13.699341%,9.399414%,8.198547%);fill-opacity:1;" d="M 72.4375 355.929688 C 71.246094 357.085938 70.652344 358.484375 70.652344 360.121094 L 70.652344 374.199219 C 70.652344 376.167969 71.246094 377.730469 72.4375 378.886719 C 73.664063 380.09375 75.277344 380.695313 77.277344 380.695313 L 97.125 380.695313 L 97.125 375.804688 L 78.984375 375.804688 C 77.742188 375.804688 76.90625 375.476563 76.472656 374.820313 C 76.269531 374.511719 76.164063 373.363281 76.164063 371.378906 L 76.164063 361.441406 C 76.164063 360.613281 76.335938 360.035156 76.679688 359.707031 C 77.183594 359.226563 78.140625 358.984375 79.554688 358.984375 L 97.125 358.984375 L 97.125 354.09375 L 77.070313 354.09375 C 75.257813 354.09375 73.714844 354.703125 72.4375 355.929688 "/>
</g>
<g clip-path="url(#clip6)" clip-rule="nonzero">
<path style=" stroke:none;fill-rule:nonzero;fill:rgb(13.699341%,9.399414%,8.198547%);fill-opacity:1;" d="M 111.4375 347.363281 L 105.925781 347.363281 L 105.925781 354.84375 L 99.871094 354.84375 L 99.871094 359.734375 L 105.925781 359.734375 L 105.925781 373.425781 C 105.925781 376.460938 107.003906 378.582031 109.160156 379.789063 C 110.109375 380.308594 111.6875 380.566406 113.898438 380.566406 L 120.417969 380.566406 L 120.417969 375.675781 L 115.347656 375.675781 C 113.742188 375.675781 112.707031 375.503906 112.238281 375.15625 C 111.707031 374.796875 111.4375 374.078125 111.4375 373.011719 L 111.4375 359.734375 L 120.675781 359.734375 L 120.675781 354.84375 L 111.4375 354.84375 "/>
</g>
<g clip-path="url(#clip7)" clip-rule="nonzero">
<path style=" stroke:none;fill-rule:nonzero;fill:rgb(13.699341%,9.399414%,8.198547%);fill-opacity:1;" d="M 132.816406 356.679688 C 132.054688 357.179688 130.675781 357.527344 128.675781 357.714844 L 128.675781 353.960938 L 123.160156 353.960938 L 123.160156 380.800781 L 128.675781 380.800781 L 128.675781 362.839844 C 130.226563 362.632813 131.339844 362.460938 132.011719 362.320313 C 133.753906 361.925781 135.195313 361.171875 136.335938 360.070313 C 138.007813 358.484375 139.214844 356.449219 139.957031 353.960938 L 134.601563 353.960938 C 134.132813 355.308594 133.539063 356.214844 132.816406 356.679688 "/>
</g>
<g clip-path="url(#clip8)" clip-rule="nonzero">
<path style=" stroke:none;fill-rule:nonzero;fill:rgb(13.699341%,9.399414%,8.198547%);fill-opacity:1;" d="M 161.152344 372.671875 C 161.152344 374.554688 160.300781 375.492188 158.589844 375.492188 L 150.207031 375.492188 C 148.496094 375.492188 147.644531 374.554688 147.644531 372.671875 L 147.644531 362.191406 C 147.644531 361.105469 147.878906 360.347656 148.34375 359.914063 C 148.84375 359.449219 149.574219 359.214844 150.542969 359.214844 L 158.230469 359.214844 C 160.179688 359.214844 161.152344 360.207031 161.152344 362.191406 Z M 159.1875 354.324219 L 149.507813 354.324219 C 147.109375 354.324219 145.304688 354.894531 144.097656 356.03125 C 142.785156 357.277344 142.132813 358.75 142.132813 360.457031 L 142.132813 373.371094 C 142.132813 375.527344 142.796875 377.289063 144.125 378.652344 C 145.261719 379.808594 147.058594 380.386719 149.507813 380.386719 L 159.1875 380.386719 C 161.652344 380.386719 163.457031 379.808594 164.59375 378.652344 C 165.976563 377.273438 166.664063 375.511719 166.664063 373.371094 L 166.664063 360.457031 C 166.664063 358.734375 166 357.257813 164.671875 356.03125 C 163.429688 354.894531 161.601563 354.324219 159.1875 354.324219 "/>
</g>
<g clip-path="url(#clip9)" clip-rule="nonzero">
<path style=" stroke:none;fill-rule:nonzero;fill:rgb(13.699341%,9.399414%,8.198547%);fill-opacity:1;" d="M 186.566406 354.273438 L 175.695313 354.273438 C 174.007813 354.273438 172.515625 354.894531 171.21875 356.136719 C 169.976563 357.34375 169.355469 358.964844 169.355469 361.003906 L 169.355469 380.4375 L 174.867188 380.4375 L 174.867188 361.777344 C 174.867188 360.898438 175.03125 360.269531 175.359375 359.890625 C 175.773438 359.40625 176.707031 359.164063 178.15625 359.164063 L 185.738281 359.164063 C 186.722656 359.164063 187.414063 359.371094 187.808594 359.785156 C 188.152344 360.148438 188.324219 360.8125 188.324219 361.777344 L 188.324219 380.4375 L 193.839844 380.4375 L 193.839844 360.769531 C 193.839844 358.90625 193.199219 357.363281 191.921875 356.136719 C 190.613281 354.894531 188.824219 354.273438 186.566406 354.273438 "/>
</g>
<path style=" stroke:none;fill-rule:nonzero;fill:rgb(13.699341%,9.399414%,8.198547%);fill-opacity:1;" d="M 197.203125 347.855469 L 202.714844 347.855469 L 202.714844 341 L 197.203125 341 Z M 197.203125 347.855469 "/>
<g clip-path="url(#clip10)" clip-rule="nonzero">
<path style=" stroke:none;fill-rule:nonzero;fill:rgb(13.699341%,9.399414%,8.198547%);fill-opacity:1;" d="M 197.203125 380.488281 L 202.714844 380.488281 L 202.714844 354.066406 L 197.203125 354.066406 Z M 197.203125 380.488281 "/>
</g>
<g clip-path="url(#clip11)" clip-rule="nonzero">
<path style=" stroke:none;fill-rule:nonzero;fill:rgb(13.699341%,9.399414%,8.198547%);fill-opacity:1;" d="M 207.996094 355.929688 C 206.804688 357.085938 206.210938 358.484375 206.210938 360.121094 L 206.210938 374.199219 C 206.210938 376.167969 206.804688 377.730469 207.996094 378.886719 C 209.21875 380.09375 210.832031 380.695313 212.835938 380.695313 L 232.683594 380.695313 L 232.683594 375.804688 L 214.542969 375.804688 C 213.300781 375.804688 212.464844 375.476563 212.03125 374.820313 C 211.824219 374.511719 211.722656 373.363281 211.722656 371.378906 L 211.722656 361.441406 C 211.722656 360.613281 211.894531 360.035156 212.238281 359.707031 C 212.738281 359.226563 213.695313 358.984375 215.109375 358.984375 L 232.683594 358.984375 L 232.683594 354.09375 L 212.628906 354.09375 C 210.816406 354.09375 209.269531 354.703125 207.996094 355.929688 "/>
</g>
<g clip-path="url(#clip12)" clip-rule="nonzero">
<path style=" stroke:none;fill-rule:nonzero;fill:rgb(13.699341%,9.399414%,8.198547%);fill-opacity:1;" d="M 252.273438 364.625 L 243.761719 364.625 C 242.710938 364.625 241.949219 364.410156 241.484375 363.976563 C 241.136719 363.652344 240.964844 363.304688 240.964844 362.941406 L 240.964844 360.949219 C 240.964844 360.449219 241.203125 360.027344 241.675781 359.683594 C 242.152344 359.335938 242.726563 359.164063 243.398438 359.164063 L 258.539063 359.164063 L 258.539063 354.273438 L 241.976563 354.273438 C 240.113281 354.273438 238.558594 354.886719 237.316406 356.109375 C 236.074219 357.320313 235.453125 358.835938 235.453125 360.664063 L 235.453125 363.355469 C 235.453125 364.945313 236.074219 366.375 237.316406 367.652344 C 238.523438 368.898438 240.222656 369.515625 242.414063 369.515625 L 251.292969 369.515625 C 252.84375 369.515625 253.621094 370.15625 253.621094 371.429688 L 253.621094 373.734375 C 253.621094 374.941406 252.84375 375.546875 251.292969 375.546875 L 235.453125 375.546875 L 235.453125 380.4375 L 251.9375 380.4375 C 254.265625 380.4375 256.054688 379.84375 257.296875 378.652344 C 258.519531 377.496094 259.132813 375.96875 259.132813 374.070313 L 259.132813 370.472656 C 259.132813 369.09375 258.546875 367.792969 257.375 366.566406 C 256.132813 365.273438 254.429688 364.625 252.273438 364.625 "/>
</g>
<g clip-path="url(#clip13)" clip-rule="nonzero">
<path style=" stroke:none;fill-rule:nonzero;fill:rgb(13.699341%,9.399414%,8.198547%);fill-opacity:1;" d="M 313.84375 356.65625 L 298.652344 356.65625 C 297.613281 356.65625 296.726563 356.300781 295.984375 355.59375 C 295.242188 354.902344 294.871094 354.09375 294.871094 353.160156 L 294.871094 349.898438 C 294.871094 348.949219 295.191406 348.148438 295.828125 347.492188 C 296.382813 346.941406 297.417969 346.664063 298.9375 346.664063 L 320.234375 346.664063 L 320.234375 340.945313 L 295.777344 340.945313 C 293.105469 340.945313 290.972656 342.058594 289.386719 344.285156 C 288.765625 345.148438 288.453125 346.722656 288.453125 349.019531 L 288.453125 355.695313 C 288.453125 357.820313 288.972656 359.398438 290.007813 360.433594 C 291.28125 361.726563 292.984375 362.375 295.105469 362.375 L 311.382813 362.375 C 312.488281 362.375 313.308594 362.597656 313.84375 363.046875 C 314.636719 363.683594 315.03125 364.417969 315.03125 365.246094 L 315.03125 370.527344 C 315.03125 372.199219 314.765625 373.292969 314.230469 373.8125 C 313.558594 374.449219 312.667969 374.769531 311.566406 374.769531 L 288.789063 374.769531 L 288.789063 380.488281 L 313.066406 380.488281 C 315.652344 380.488281 317.742188 379.671875 319.328125 378.03125 C 320.742188 376.5625 321.449219 374.519531 321.449219 371.898438 L 321.449219 365.296875 C 321.449219 362.519531 320.761719 360.390625 319.378906 358.90625 C 317.984375 357.40625 316.136719 356.65625 313.84375 356.65625 "/>
</g>
<g clip-path="url(#clip14)" clip-rule="nonzero">
<path style=" stroke:none;fill-rule:nonzero;fill:rgb(13.699341%,9.399414%,8.198547%);fill-opacity:1;" d="M 335.710938 347.363281 L 330.199219 347.363281 L 330.199219 354.84375 L 324.144531 354.84375 L 324.144531 359.734375 L 330.199219 359.734375 L 330.199219 373.425781 C 330.199219 376.460938 331.277344 378.582031 333.433594 379.789063 C 334.382813 380.308594 335.960938 380.566406 338.171875 380.566406 L 344.691406 380.566406 L 344.691406 375.675781 L 339.617188 375.675781 C 338.015625 375.675781 336.980469 375.503906 336.511719 375.15625 C 335.980469 374.796875 335.710938 374.078125 335.710938 373.011719 L 335.710938 359.734375 L 344.949219 359.734375 L 344.949219 354.84375 L 335.710938 354.84375 "/>
</g>
<g clip-path="url(#clip15)" clip-rule="nonzero">
<path style=" stroke:none;fill-rule:nonzero;fill:rgb(13.699341%,9.399414%,8.198547%);fill-opacity:1;" d="M 366.558594 372.777344 C 366.558594 374.640625 365.652344 375.574219 363.839844 375.574219 L 355.171875 375.574219 C 353.6875 375.574219 352.945313 374.71875 352.945313 373.011719 L 352.945313 354.144531 L 347.433594 354.144531 L 347.433594 373.476563 C 347.433594 375.460938 347.933594 377.074219 348.933594 378.316406 C 350.074219 379.746094 351.660156 380.464844 353.695313 380.464844 L 365.757813 380.464844 C 367.808594 380.464844 369.414063 379.746094 370.570313 378.316406 C 371.570313 377.074219 372.070313 375.460938 372.070313 373.476563 L 372.070313 354.144531 L 366.558594 354.144531 "/>
</g>
<g clip-path="url(#clip16)" clip-rule="nonzero">
<path style=" stroke:none;fill-rule:nonzero;fill:rgb(13.699341%,9.399414%,8.198547%);fill-opacity:1;" d="M 395.542969 372.957031 C 395.542969 373.890625 395.355469 374.570313 394.976563 375.003906 C 394.578125 375.449219 393.871094 375.675781 392.851563 375.675781 L 382.734375 375.675781 C 382.234375 375.675781 381.964844 375.667969 381.929688 375.648438 C 381.585938 375.582031 381.214844 375.347656 380.816406 374.949219 C 380.472656 374.605469 380.300781 373.941406 380.300781 372.957031 L 380.300781 361.183594 C 380.300781 360.613281 380.507813 360.085938 380.921875 359.605469 C 381.285156 359.191406 381.886719 358.984375 382.734375 358.984375 L 393.238281 358.984375 C 394.777344 358.984375 395.542969 359.71875 395.542969 361.183594 Z M 395.542969 354.09375 L 381.207031 354.09375 C 379.394531 354.09375 377.859375 354.714844 376.601563 355.957031 C 375.394531 357.144531 374.789063 358.621094 374.789063 360.382813 L 374.789063 374.097656 C 374.789063 376.03125 375.417969 377.597656 376.679688 378.808594 C 377.902344 379.980469 379.488281 380.566406 381.441406 380.566406 L 394.148438 380.566406 C 396.90625 380.566406 398.917969 379.601563 400.175781 377.667969 C 400.761719 376.753906 401.054688 375.277344 401.054688 373.242188 L 401.054688 341.125 L 395.542969 341.125 "/>
</g>
<g clip-path="url(#clip17)" clip-rule="nonzero">
<path style=" stroke:none;fill-rule:nonzero;fill:rgb(13.699341%,9.399414%,8.198547%);fill-opacity:1;" d="M 404.523438 380.488281 L 410.039063 380.488281 L 410.039063 354.066406 L 404.523438 354.066406 Z M 404.523438 380.488281 "/>
</g>
<path style=" stroke:none;fill-rule:nonzero;fill:rgb(13.699341%,9.399414%,8.198547%);fill-opacity:1;" d="M 404.523438 347.855469 L 410.039063 347.855469 L 410.039063 341 L 404.523438 341 Z M 404.523438 347.855469 "/>
<g clip-path="url(#clip18)" clip-rule="nonzero">
<path style=" stroke:none;fill-rule:nonzero;fill:rgb(13.699341%,9.399414%,8.198547%);fill-opacity:1;" d="M 432.578125 372.671875 C 432.578125 374.554688 431.722656 375.492188 430.015625 375.492188 L 421.628906 375.492188 C 419.921875 375.492188 419.066406 374.554688 419.066406 372.671875 L 419.066406 362.191406 C 419.066406 361.105469 419.300781 360.347656 419.765625 359.914063 C 420.269531 359.449219 421.003906 359.214844 421.96875 359.214844 L 429.652344 359.214844 C 431.601563 359.214844 432.578125 360.207031 432.578125 362.191406 Z M 436.097656 356.03125 C 434.855469 354.894531 433.027344 354.324219 430.609375 354.324219 L 420.933594 354.324219 C 418.535156 354.324219 416.730469 354.894531 415.523438 356.03125 C 414.214844 357.277344 413.558594 358.75 413.558594 360.457031 L 413.558594 373.371094 C 413.558594 375.527344 414.21875 377.289063 415.550781 378.652344 C 416.6875 379.808594 418.480469 380.386719 420.933594 380.386719 L 430.609375 380.386719 C 433.078125 380.386719 434.882813 379.808594 436.019531 378.652344 C 437.398438 377.273438 438.089844 375.511719 438.089844 373.371094 L 438.089844 360.457031 C 438.089844 358.734375 437.425781 357.257813 436.097656 356.03125 "/>
</g>
<path style=" stroke:none;fill-rule:nonzero;fill:rgb(13.699341%,9.399414%,8.198547%);fill-opacity:1;" d="M 297.484375 84.414063 L 318.609375 53.300781 L 302.917969 53.300781 L 289.640625 72.9375 L 276.363281 53.300781 L 260.671875 53.300781 L 281.792969 84.414063 L 260.066406 116.394531 L 275.757813 116.394531 L 289.640625 96.140625 L 303.519531 116.394531 L 319.214844 116.394531 Z M 201.421875 116.394531 L 256.546875 116.394531 L 256.546875 101.664063 L 213.492188 101.664063 L 213.492188 92.210938 L 253.828125 92.210938 L 253.828125 77.480469 L 213.492188 77.480469 L 213.492188 68.027344 L 256.644531 68.027344 L 256.644531 53.300781 L 201.421875 53.300781 Z M 181.710938 81.164063 L 143.6875 81.164063 L 143.6875 68.027344 L 181.710938 68.027344 C 183.453125 68.027344 184.324219 70.238281 184.324219 74.65625 C 184.324219 78.996094 183.453125 81.164063 181.710938 81.164063 M 181.710938 53.300781 L 131.613281 53.300781 L 131.613281 116.394531 L 143.6875 116.394531 L 143.6875 95.894531 L 181.710938 95.894531 C 186.199219 95.894531 189.820313 93.644531 192.570313 89.144531 C 195.121094 85.132813 196.394531 80.304688 196.394531 74.65625 C 196.394531 69.011719 195.121094 64.144531 192.570313 60.050781 C 189.820313 55.550781 186.199219 53.300781 181.710938 53.300781 M 111.898438 53.300781 L 77.699219 53.300781 C 73.40625 53.300781 69.902344 55.21875 67.1875 59.058594 C 64.472656 62.894531 63.113281 67.46875 63.113281 72.777344 L 63.113281 116.394531 L 75.183594 116.394531 L 75.183594 72.804688 C 75.183594 69.621094 76.023438 68.027344 77.699219 68.027344 L 111.898438 68.027344 C 113.644531 68.027344 114.515625 69.625 114.515625 72.816406 L 114.515625 81.652344 L 82.730469 81.652344 L 82.730469 96.386719 L 114.515625 96.386719 L 114.515625 116.394531 L 126.585938 116.394531 L 126.585938 72.777344 C 126.585938 67.46875 125.226563 62.894531 122.511719 59.058594 C 119.796875 55.21875 116.257813 53.300781 111.898438 53.300781 "/>
</g>
</svg>
