<svg width="545" height="300" xmlns="http://www.w3.org/2000/svg">

 <g>
  <title>background</title>
  <rect fill="none" id="canvas_background" height="302" width="547" y="-1" x="-1"/>
 </g>
 <g>
  <title>Layer 1</title>
  <g id="svg_1">
   <g id="svg_2">
    <path id="svg_3" d="m55.666721,246.100088c-0.7,0.1 -1.3,-0.4 -1.5,-1c-0.8,-2.6 -1.7,-5.1 -2.6,-6.5c-1.5,-2.5 -2.4,-3.1 -7.5,-3.1l-7.4,0c-1.1,0 -1.9,0.9 -1.9,1.9l0,43.1c0,6.9 0.7,8.1 8.5,8.7c0.6,0 1.1,0.5 1.1,1.1l0,0.4c0,0.6 -0.5,1.1 -1.1,1.1l-24.6,0c-0.6,0 -1.1,-0.5 -1.1,-1.1l0,-0.4c0,-0.6 0.5,-1.1 1.1,-1.1c7.6,-0.6 8.3,-1.7 8.3,-8.7l0,-43.1c0,-1.1 -0.9,-1.9 -1.9,-1.9l-6.5,0c-5.1,0 -6.6,0.6 -8.1,3.3c-1,1.7 -1.7,3.7 -2.7,6.6c-0.2,0.5 -0.7,0.9 -1.2,0.9l-0.4,0c-0.8,0 -1.4,-0.7 -1.3,-1.4c0.5,-4.7 0.9,-9.5 1.2,-13.9c0,-0.8 0.7,-1.4 1.4,-1.4l0,0c0.5,0 0.9,0.2 1.2,0.6c1.2,1.6 2.3,1.5 4.6,1.5l36.6,0c2.4,0 3.2,-0.3 4.4,-1.7c0.2,-0.3 0.6,-0.4 0.9,-0.4l0.3,0c0.7,0 1.3,0.6 1.4,1.3c0.1,3.9 0.3,9.1 0.7,13.6c0.1,0.8 -0.5,1.5 -1.3,1.6l-0.6,0z"/>
    <path id="svg_4" d="m96.066721,230.400088c15.8,0 29.9,12.1 29.9,30.5c0,19.9 -13.5,32.2 -30.5,32.2c-17.7,0 -30.7,-13.5 -30.7,-30.9c0,-16.5 11.8,-31.8 31.3,-31.8zm-1.9,3.4c-10.3,0 -19.8,8.7 -19.8,26c0,17.2 9.4,29.8 22.5,29.8c11.2,0 19.6,-8.3 19.6,-26.1c0.1,-19.4 -10.2,-29.7 -22.3,-29.7z"/>
    <path id="svg_5" d="m158.766721,231.700088c6.6,0 11.8,1.2 15.6,4c3.6,2.7 6.1,7 6.1,13.1c0,13.5 -11.5,18.9 -20.3,18.9c-1,0 -1.9,-0.1 -2.5,-0.2c0,0 0,0 0,0l-2,-0.5c-2.2,-0.6 -4.4,1.1 -4.4,3.4l0,9.8c0,7.4 0.6,7.9 8.1,8.7c0.6,0.1 1.1,0.6 1.1,1.2l0,0.3c0,0.7 -0.5,1.2 -1.2,1.2l-23.1,0c-0.7,0 -1.2,-0.5 -1.2,-1.2l0,-0.3c0,-0.6 0.5,-1.1 1.1,-1.2c6.9,-0.8 7.2,-1.6 7.2,-8.9l0,-36.7c0,-7.9 -0.9,-8.4 -7.4,-9c-0.5,-0.1 -0.9,-0.5 -0.9,-1l0,-0.6c0,-0.6 0.5,-1.1 1.1,-1.1l22.7,0l0,0.1zm-7.5,28.3c0,1.7 1.2,3.2 2.9,3.5c1.1,0.2 2.4,0.3 3.8,0.3c6.2,0 13.9,-3.1 13.9,-14.8c0,-10.2 -6.7,-14.2 -14.4,-14.2c-2.7,0 -4.6,0.5 -5.2,1.1c-0.7,0.6 -1,1.8 -1,4.2l0,19.9z"/>
    <path id="svg_6" d="m233.466721,231.700088c6.6,0 11.8,1.2 15.6,4c3.6,2.7 6.1,7 6.1,13.1c0,13.5 -11.5,18.9 -20.3,18.9c-1,0 -1.9,-0.1 -2.5,-0.2c0,0 0,0 0,0l-2.2,-0.6c-2.1,-0.5 -4.1,1 -4.1,3.2l0,10.1c0,7.4 0.6,7.9 8,8.7c0.6,0.1 1.1,0.6 1.1,1.3l0,0c0,0.8 -0.6,1.4 -1.4,1.4l-22.7,0c-0.8,0 -1.4,-0.6 -1.4,-1.4l0,0c0,-0.6 0.5,-1.2 1.1,-1.3c6.8,-0.8 7.2,-1.6 7.2,-8.9l0,-36.7c0,-7.8 -0.9,-8.4 -7.3,-9c-0.6,-0.1 -1,-0.5 -1,-1.1l0,-0.5c0,-0.6 0.5,-1.1 1.1,-1.1l22.7,0l0,0.1zm-7.5,28.5c0,1.6 1.1,2.9 2.6,3.2c1.2,0.2 2.6,0.4 4.1,0.4c6.2,0 13.9,-3.1 13.9,-14.8c0,-10.2 -6.7,-14.2 -14.4,-14.2c-2.7,0 -4.6,0.5 -5.2,1.1c-0.7,0.6 -1,1.8 -1,4.2l0,20.1z"/>
    <path id="svg_7" d="m309.666721,277.600088c-0.6,2.6 -1.9,7.2 -2.9,10.6c-0.6,2.1 -2.5,3.5 -4.7,3.5l-38.2,0c-0.6,0 -1.1,-0.5 -1.1,-1.1l0,-0.4c0,-0.6 0.4,-1.1 1,-1.1c7.4,-0.8 8.1,-1.5 8.1,-9l0,-36.7c0,-7.4 -0.8,-8.2 -7.2,-8.9c-0.6,-0.1 -1.1,-0.6 -1.1,-1.2l0,-0.2c0,-0.7 0.6,-1.3 1.3,-1.3l22.3,0c0.7,0 1.3,0.6 1.3,1.3l0,0.2c0,0.6 -0.5,1.2 -1.1,1.2c-6.4,0.7 -7.3,1.4 -7.3,8.9l0,37.6c0,5.6 0.7,6.9 6,7c0.1,0.1 6.7,0.1 7.3,0.1c4.7,0 6.1,-0.6 8.2,-2.9c2.1,-2.2 3.9,-5.4 5.2,-8.5c0.3,-0.6 0.9,-0.9 1.5,-0.8l0.6,0.1c0.6,0.3 1,0.9 0.8,1.6z"/>
    <path id="svg_8" d="m352.966721,290.300088l0,0c0,-0.7 0.5,-1.2 1.1,-1.3c5,-0.7 5.5,-1.7 4.3,-5c-1.1,-3.2 -2.7,-7.3 -4.4,-12.3c-0.4,-1 -1.4,-1.8 -2.5,-1.8l-16.3,0c-1.1,0 -2.1,0.7 -2.5,1.7c-1.2,3.5 -2.4,6.6 -3.5,9.8c-1.9,5.7 -0.9,6.7 5.7,7.5c0.6,0.1 1.1,0.6 1.1,1.3l0,0c0,0.8 -0.6,1.4 -1.4,1.4l-18.5,0c-0.8,0 -1.4,-0.6 -1.4,-1.4l0,0c0,-0.6 0.5,-1.2 1.1,-1.3c4.9,-0.7 6.4,-1.8 9.4,-9.5l19.1,-48.4c0,0 0.1,-0.1 0.1,-0.1l0.5,-0.1c1.4,-0.3 2.8,0.5 3.2,1.8c5.6,15.2 11.6,31.7 17.2,47c2.8,7.5 3.7,8.7 9.2,9.4c0.6,0.1 1.1,0.6 1.1,1.3l0,0c0,0.8 -0.6,1.4 -1.4,1.4l-20,0c-0.6,0 -1.2,-0.6 -1.2,-1.4zm-11.8,-41.1c-1.7,4.6 -3.4,9.1 -5,13.4c-0.6,1.7 0.6,3.5 2.4,3.5l9.8,0c1.8,0 3.1,-1.8 2.5,-3.5l-4.8,-13.4c-0.8,-2.2 -4,-2.3 -4.9,0z"/>
    <path id="svg_9" d="m425.166721,233.300088c0,0.5 -0.4,1 -0.9,1c-5.7,0.7 -6.8,1.9 -10.4,7.6c-4.2,6.7 -7.6,13.1 -12.1,21.3c-1.1,2.1 -1.4,3.2 -1.4,5.4l0,11.5c0,7.4 0.8,8.2 8.6,9c0.5,0 0.9,0.5 0.9,0.9l0,0.8c0,0.5 -0.4,1 -1,1l-24.6,0c-0.5,0 -1,-0.4 -1,-1l0,-0.8c0,-0.5 0.4,-0.9 0.8,-0.9c7.6,-1 8.2,-1.4 8.2,-8.9l0,-11.9c0,-1.8 -0.4,-2.7 -1.8,-5.4c-3.2,-6 -6.4,-11.8 -11.4,-20.5c-3.4,-6 -4.4,-7.3 -9.9,-7.9c-0.5,-0.1 -0.9,-0.5 -0.9,-1l0,-0.6c0,-0.6 0.5,-1 1,-1l20.6,0c0.6,0 1,0.5 1,1l0,0.6c0,0.5 -0.4,1 -0.9,1c-5.7,0.9 -5.3,2.1 -3.7,5.1c3.1,5.7 6.6,12.3 9.8,18.2c1,1.8 3.6,1.8 4.5,0c3.1,-5.9 6.9,-13.1 9,-17.2c2,-4.4 1.9,-5.5 -4.5,-6.2c-0.5,-0.1 -0.9,-0.5 -0.9,-1l0,-0.6c0,-0.6 0.5,-1 1,-1l18.8,0c0.6,0 1,0.5 1,1l0,0.5l0.2,0z"/>
    <path id="svg_10" d="m478.066721,278.400088c-0.6,2.2 -1.6,6 -2.4,9.1c-0.7,2.5 -2.9,4.2 -5.5,4.2l-39.6,0c-0.6,0 -1,-0.5 -1,-1l0,-0.6c0,-0.5 0.4,-1 1,-1c7.7,-0.6 8.3,-1.7 8.3,-9l0,-36.5c0,-7.8 -0.9,-8.6 -7,-9.2c-0.5,-0.1 -0.9,-0.5 -0.9,-1l0,-0.6c0,-0.6 0.5,-1 1,-1l27.2,0c3.7,0 6.5,0 8.5,0c2.7,0 5,2.1 5.1,4.8c0.1,2.5 0.3,5.4 0.5,8c0,0.7 -0.4,1.3 -1.1,1.4l-0.3,0.1c-0.7,0.1 -1.3,-0.3 -1.5,-1c-0.7,-2.5 -1.6,-4.2 -2.4,-5.9c-1.5,-3 -3.6,-3.7 -9.1,-3.7l-8.8,0c-2.9,0 -3,0.3 -3,3l0,18.5c0,1.1 0.9,1.9 1.9,1.9l8.3,0c6.6,0 7.3,-1.3 8.3,-6.8c0.1,-0.5 0.6,-0.9 1.1,-0.9l0.8,0c0.6,0 1.1,0.5 1.1,1.1l0,16.8c0,0.6 -0.5,1.1 -1.1,1.1l-0.8,0c-0.5,0 -1,-0.4 -1.1,-0.9c-1.1,-5.8 -2.1,-6.7 -8.4,-6.7l-8.5,0c-1.1,0 -1.9,0.9 -1.9,1.9l0,16.5c0,6.5 2,7 6.7,7.1l8.6,0c5.6,0 6.6,-0.8 8.6,-3.2c1.5,-1.7 3.2,-4.8 4.5,-7.4c0.3,-0.6 1,-0.9 1.7,-0.8l0.3,0.1c0.6,0.1 1.1,0.9 0.9,1.6z"/>
    <path id="svg_11" d="m539.766721,291.500088c-0.1,0.6 -0.6,1 -1.2,1c-0.8,0 -1.5,-0.1 -2.4,-0.2c-6.7,-0.5 -10.3,-2.2 -14.4,-7.9c-3.4,-4.7 -6.7,-10.5 -9.7,-15.2c-1.8,-3 -3,-3.5 -7.8,-3.5l-3.1,0c-0.1,0 -0.1,0.1 -0.1,0.1l0,14.3c0,7.5 0.9,8.3 7.6,9c0.5,0 0.8,0.4 0.8,0.9l0,0.8c0,0.5 -0.4,0.9 -0.9,0.9l-22.8,0c-0.5,0 -0.9,-0.4 -0.9,-0.9l0,-0.8c0,-0.5 0.4,-0.9 0.8,-0.9c6.9,-0.8 7.5,-1.4 7.5,-9l0,-36.9c0,-7.5 -0.9,-8.1 -7.4,-8.9c-0.5,-0.1 -0.9,-0.5 -0.9,-1l0,-0.6c0,-0.6 0.5,-1 1,-1l22.5,0c6.7,0 11.3,0.8 14.8,3.1c3.8,2.4 6.3,6.6 6.3,12.2c0,6.6 -3.5,11.1 -8.5,14.2c-1.8,1.1 -2.3,3.5 -1.2,5.3c1.9,3 4.3,6.8 6.2,9.7c3.4,4.9 5.2,7.2 7.3,9.5c2.2,2.3 4,3.4 5.9,4c0.5,0.2 0.8,0.7 0.7,1.2l-0.1,0.6zm-34.2,-29c4.8,0 7.9,-0.7 10.2,-2.7c3.6,-2.7 5.1,-6.4 5.1,-11.4c0,-9.9 -6.6,-13.5 -13.7,-13.5c-2.7,0 -4.2,0.4 -4.9,0.9c-0.8,0.6 -1.1,1.6 -1.1,4l0,18.8c0,2.1 1.7,3.9 3.9,3.9l0.5,0z"/>
   </g>
   <g id="svg_12">
    <path id="svg_13" d="m325.066721,31.100088c-4.7,0 -9.1,0 -13.4,0c-1.6,0 -1.9,1.1 -2,2.4c-1,9 -2.1,18 -3.2,27c-1.3,10.4 -2.6,20.8 -3.8,31.2c-0.9,7.3 -1.5,14.6 -2.4,22c-1.2,10.3 -2.5,20.5 -3.7,30.7c-1.3,11.5 -2.6,23 -3.9,34.6c-0.5,4.5 -1.1,9.1 -1.5,13.6c-0.2,1.5 -0.8,2.3 -2.4,2.3c-1.1,0 -2.2,0 -3.3,0c-18.5,0 -36.9,0 -55.4,0c-1.2,0 -2.5,-0.1 -4.2,-0.2c0.3,-3.4 0.6,-6.6 0.9,-9.8c1,-8.5 1.9,-17 3,-25.5c1.2,-10 2.5,-20 3.7,-30c0.8,-7.1 1.5,-14.3 2.3,-21.4c1.7,-14.6 3.6,-29.2 5.3,-43.8c1.4,-11.5 2.6,-23 3.9,-34.6c0.8,-7.5 1.7,-15 2.5,-22.4c0.2,-1.5 0.9,-2.1 2.3,-2c0.6,0 1.2,0 1.8,0c46,0 92,0 138,0c3.8,0 3.7,0 3.2,3.8c-0.9,7.4 -1.7,14.8 -2.6,22.2c-1.2,10.2 -2.5,20.5 -3.8,30.7c-0.9,7.3 -1.5,14.6 -2.4,22c-1.2,10.2 -2.5,20.5 -3.7,30.7c-0.5,4.4 -1.2,8.9 -1.5,13.4c-0.2,2.2 -1.1,2.6 -3,2.6c-18.2,-0.1 -36.4,0 -54.7,0c-1.9,0 -3.7,0 -5.6,0c-1.5,0 -1.9,-0.6 -1.7,-2c1.5,-12.7 2.9,-25.4 4.4,-38.1c1,-8.9 2,-17.8 3.1,-26.7c1.3,-9.9 3.8,-31.4 3.8,-32.7z"/>
    <path id="svg_14" d="m187.866721,69.900088c-11.2,0 -22.4,-0.1 -33.6,0c-2.4,0 -3.4,-0.7 -3.1,-3.2c1,-7.7 1.9,-15.4 2.8,-23.2c0.9,-7.5 1.6,-15 2.4,-22.5c0.5,-4.5 1.1,-9.1 1.5,-13.6c0.2,-1.8 0.9,-2.4 2.8,-2.4c23,0 45.9,0.1 68.9,0c2,0 2.8,0.6 2.5,2.6c-0.8,6.6 -1.6,13.3 -2.4,19.9c-0.7,5.8 -1.5,11.6 -2.1,17.4c-0.9,7.4 -1.7,14.8 -2.5,22.2c-0.2,2.2 -1.2,2.8 -3.3,2.8c-11.2,0 -22.5,0 -33.9,0z"/>
   </g>
  </g>
 </g>
</svg>