<svg width="1133.9" height="1133.9" xmlns="http://www.w3.org/2000/svg">

 <g>
  <title>background</title>
  <rect fill="none" id="canvas_background" height="402" width="582" y="-1" x="-1"/>
 </g>
 <g>
  <title>Layer 1</title>
  <g stroke="null" id="svg_1">
   <g stroke="null" id="svg_12">
    <path stroke="null" id="svg_13" d="m811.45858,234.118038c-21.642495,0 -41.903555,0 -61.704135,0c-7.367658,0 -8.749094,5.403848 -9.209572,11.790214c-4.604786,44.213304 -9.670051,88.426607 -14.735316,132.639911c-5.986222,51.090929 -11.972444,102.181857 -17.498188,153.272786c-4.144308,35.861902 -6.907179,71.723804 -11.051487,108.076964c-5.525743,50.59967 -11.511966,100.70808 -17.037709,150.816491c-5.986222,56.494777 -11.972444,112.989554 -17.958666,169.975589c-2.302393,22.106652 -5.065265,44.704562 -6.907179,66.811214c-0.920957,7.368884 -3.683829,11.298955 -11.051487,11.298955c-5.065265,0 -10.13053,0 -15.195795,0c-85.188545,0 -169.916612,0 -255.105157,0c-5.525743,0 -11.511966,-0.491259 -19.340102,-0.982518c1.381436,-16.702804 2.762872,-32.423089 4.144308,-48.143375c4.604786,-41.757009 8.749094,-83.514018 13.814359,-125.271027c5.525743,-49.125893 11.511966,-98.251786 17.037709,-147.377679c3.683829,-34.879384 6.907179,-70.250027 10.591008,-105.129411c7.828137,-71.723804 16.57723,-143.447607 24.405367,-215.171411c6.446701,-56.494777 11.972444,-112.989554 17.958666,-169.975589c3.683829,-36.84442 7.828137,-73.688839 11.511966,-110.042c0.920957,-7.368884 4.144308,-10.316437 10.591008,-9.825179c2.762872,0 5.525743,0 8.288615,0c211.820166,0 423.640333,0 635.460499,0c17.498188,0 17.037709,0 14.735316,18.667839c-4.144308,36.353161 -7.828137,72.706321 -11.972444,109.059482c-5.525743,50.108411 -11.511966,100.70808 -17.498188,150.816491c-4.144308,35.861902 -6.907179,71.723804 -11.051487,108.076964c-5.525743,50.108411 -11.511966,100.70808 -17.037709,150.816491c-2.302393,21.615393 -5.525743,43.722045 -6.907179,65.828696c-0.920957,10.807696 -5.065265,12.772732 -13.814359,12.772732c-83.807109,-0.491259 -167.614219,0 -251.881806,0c-8.749094,0 -17.037709,0 -25.786803,0c-6.907179,0 -8.749094,-2.947554 -7.828137,-9.825179c6.907179,-62.389884 13.35388,-124.779768 20.261059,-187.169652c4.604786,-43.722045 9.209572,-87.444089 14.274837,-131.166134c5.986222,-48.634634 17.498188,-154.255304 17.498188,-160.64167z"/>
    <path stroke="null" id="svg_14" d="m179.68191,424.726502c-51.573606,0 -103.147211,-0.491259 -154.720817,0c-11.051487,0 -15.656273,-3.438812 -14.274837,-15.720286c4.604786,-37.826937 8.749094,-75.653875 12.893401,-113.972071c4.144308,-36.84442 7.367658,-73.688839 11.051487,-110.533259c2.302393,-22.106652 5.065265,-44.704562 6.907179,-66.811214c0.920957,-8.842661 4.144308,-11.790214 12.893401,-11.790214c105.910083,0 211.359688,0.491259 317.269771,0c9.209572,0 12.893401,2.947554 11.511966,12.772732c-3.683829,32.423089 -7.367658,65.337437 -11.051487,97.760527c-3.22335,28.493018 -6.907179,56.986036 -9.670051,85.479054c-4.144308,36.353161 -7.828137,72.706321 -11.511966,109.059482c-0.920957,10.807696 -5.525743,13.75525 -15.195795,13.75525c-51.573606,0 -103.60769,0 -156.102253,0z"/>
   </g>
  </g>
 </g>
</svg>